{"title":"Too Many Cooks (2014 Adult Swim) 1080p WEBrip TV Short","uid":11470846,"size":291017999,"categoryP":"video","categoryS":"hd___tv_shows","magnet":"?xt=urn:btih:06afc44a506a36c548a2dbaa5f0cd0a587bac3fb&amp;dn=Too+Many+Cooks+%282014+Adult+Swim%29+1080p+WEBrip+TV+Short&amp;tr=udp%3A%2F%2Ftracker.openbittorrent.com%3A80&amp;tr=udp%3A%2F%2Fopen.demonii.com%3A1337&amp;tr=udp%3A%2F%2Ftracker.coppersurfer.tk%3A6969&amp;tr=udp%3A%2F%2Fexodus.desync.com%3A6969","seeders":10,"leechers":0,"uploader":"fiveofseven","files":-1,"time":1416081085,"description":"You'll wish you had your 11 minutes back\nwhile trying to get the song out of your head\n\n\nPLOT - A parody of the 1980's sitcoms. (and other genres)\n\n  &lt;a href=&quot;\nhttp://www.imdb.com/title/tt3534838/?ref_=nv_sr_1&quot; rel=&quot;nofollow&quot; target=&quot;_NEW&quot;&gt;\nhttp://www.imdb.com/title/tt3534838/?ref_=nv_sr_1&lt;/a&gt; \n \n\nAs it was ripped from You-Tube, Not my encode\n\nGeneral\nComplete name                            : Too Many Cooks _ Adult Swim.mp4\nFormat                                   : MPEG-4\nFormat profile                           : Base Media\nCodec ID                                 : isom\nFile size                                : 278 MiB\nDuration                                 : 11mn 11s\nOverall bit rate                         : 3 467 Kbps\nWriting application                      : Lavf54.63.104\n\nVideo\nID                                       : 1\nFormat                                   : AVC\nFormat/Info                              : Advanced Video Codec\nFormat profile                           : &lt;a class=&quot;__cf_email__&quot; href=&quot;/cdn-cgi/l/email-protection&quot; data-cfemail=&quot;fcb4959b94bcb0c8d2cc&quot;&gt;[email&amp;#160;protected]&lt;/a&gt;&lt;script cf-hash='f9e31' type=&quot;text/javascript&quot;&gt;\n/* &lt;![CDATA[ */!function(){try{var t=&quot;currentScript&quot;in document?document.currentScript:function(){for(var t=document.getElementsByTagName(&quot;script&quot;),e=t.length;e--;)if(t[e].getAttribute(&quot;cf-hash&quot;))return t[e]}();if(t&amp;&amp;t.previousSibling){var e,r,n,i,c=t.previousSibling,a=c.getAttribute(&quot;data-cfemail&quot;);if(a){for(e=&quot;&quot;,r=parseInt(a.substr(0,2),16),n=2;a.length-n;n+=2)i=parseInt(a.substr(n,2),16)^r,e+=String.fromCharCode(i);e=document.createTextNode(e),c.parentNode.replaceChild(e,c)}}}catch(u){}}();/* ]]&gt; */&lt;/script&gt;\nFormat settings, CABAC                   : Yes\nFormat settings, ReFrames                : 2 frames\nCodec ID                                 : avc1\nCodec ID/Info                            : Advanced Video Coding\nDuration                                 : 11mn 11s\nBit rate                                 : 3 335 Kbps\nWidth                                    : 1 920 pixels\nHeight                                   : 1 080 pixels\nDisplay aspect ratio                     : 16:9\nFrame rate mode                          : Variable\nFrame rate                               : 23.976 fps\nMinimum frame rate                       : 23.974 fps\nMaximum frame rate                       : 23.981 fps\nColor space                              : YUV\nChroma subsampling                       : 4:2:0\nBit depth                                : 8 bits\nScan type                                : Progressive\nBits/(Pixel*Frame)                       : 0.067\nStream size                              : 267 MiB (96%)\n\nAudio\nID                                       : 2\nFormat                                   : AAC\nFormat/Info                              : Advanced Audio Codec\nFormat profile                           : LC\nCodec ID                                 : 40\nDuration                                 : 11mn 11s\nBit rate mode                            : Constant\nBit rate                                 : 126 Kbps\nChannel count                            : 2 channels\nChannel positions                        : Front: L R\nSampling rate                            : 44.1 KHz\nCompression mode                         : Lossy\nDelay relative to video                  : 42ms\nStream size                              : 10.1 MiB (4%)\n\n\n\nScreenshot - \n  &lt;a href=&quot;\nhttp://image.bayimg.com/ed2956680b0e26904d126db0d1bb1ad77972bef2.jpg&quot; rel=&quot;nofollow&quot; target=&quot;_NEW&quot;&gt;\nhttp://image.bayimg.com/ed2956680b0e26904d126db0d1bb1ad77972bef2.jpg&lt;/a&gt;","torrent":{"xt":"urn:btih:06afc44a506a36c548a2dbaa5f0cd0a587bac3fb","amp;dn":"Too+Many+Cooks+%282014+Adult+Swim%29+1080p+WEBrip+TV+Short","amp;tr":["udp%3A%2F%2Ftracker.openbittorrent.com%3A80","udp%3A%2F%2Fopen.demonii.com%3A1337","udp%3A%2F%2Ftracker.coppersurfer.tk%3A6969","udp%3A%2F%2Fexodus.desync.com%3A6969"],"infoHash":"06afc44a506a36c548a2dbaa5f0cd0a587bac3fb","infoHashBuffer":{"type":"Buffer","data":[6,175,196,74,80,106,54,197,72,162,219,170,95,12,208,165,135,186,195,251]},"announce":[],"urlList":[]}}